# xmcd
# Copyright (C) 1995-1998 Ti Kan
#
# Track frame offsets:
#       150
#       27717
#       53782
#       78830
#       106537
#       129717
#       158240
#       210310
#       228552
#       244707
#       267827
#       301662
#
# Disc length: 4351 seconds
#
# Revision: 0
# Processed by: cddbd v1.5.1PL0 Copyright (c) Steve Scherf et al.
# Submitted via: CD-Transfer v1.0
#
DISCID=9110fd0c
DTITLE=Intus - 
DYEAR=97
DGENRE=
TTITLE0=Tales from the market square
TTITLE1=Servant of the last queen
TTITLE2=March steady
TTITLE3=Amnesia
TTITLE4=Approach Ulysses
TTITLE5=Aqua
TTITLE6=Art of Crime
TTITLE7=Doing time
TTITLE8=Anachro
TTITLE9=Slomo
TTITLE10=I owe you nothing
TTITLE11=Rare light of darkness
EXTD=
EXTT0=
EXTT1=
EXTT2=
EXTT3=
EXTT4=
EXTT5=
EXTT6=
EXTT7=
EXTT8=
EXTT9=
EXTT10=
EXTT11=
PLAYORDER=
